<svg width="512" height="512" viewBox="0 0 48 48" fill="none" xmlns="http://www.w3.org/2000/svg">
  <defs>
    <linearGradient id="bg" x1="8" y1="6" x2="42" y2="42" gradientUnits="userSpaceOnUse">
      <stop stop-color="#FF7A59" />
      <stop offset="1" stop-color="#FF3B6E" />
    </linearGradient>
    <linearGradient id="panel" x1="14" y1="12" x2="34" y2="36" gradientUnits="userSpaceOnUse">
      <stop stop-color="#1A1124" />
      <stop offset="1" stop-color="#0B0A12" />
    </linearGradient>
    <linearGradient id="book" x1="19" y1="28" x2="29" y2="37" gradientUnits="userSpaceOnUse">
      <stop stop-color="#53A8FF" />
      <stop offset="1" stop-color="#2B6BFF" />
    </linearGradient>
  </defs>

  <rect x="2.5" y="2.5" width="43" height="43" rx="13" fill="url(#bg)" />
  <rect x="2.5" y="2.5" width="43" height="43" rx="13" fill="none" stroke="#FFFFFF" stroke-opacity="0.24" />

  <rect x="11" y="9.5" width="26" height="29" rx="8" fill="url(#panel)" />
  <rect x="11" y="9.5" width="26" height="29" rx="8" fill="none" stroke="#FFFFFF" stroke-opacity="0.2" />

  <circle cx="24" cy="23" r="7.3" fill="#FFF7F2" />
  <circle cx="21" cy="22.1" r="1" fill="#1A1124" />
  <circle cx="27" cy="22.1" r="1" fill="#1A1124" />
  <path d="M21.7 25.2c.9 1 3.8 1 4.7 0" stroke="#2A1A30" stroke-width="1.2" stroke-linecap="round" />

  <rect x="18" y="27.3" width="12" height="7.8" rx="2.4" fill="url(#book)" />
  <path d="M24 27.3v7.8" stroke="#DBEDFF" stroke-opacity="0.75" stroke-width="0.7" />
  <path
    d="M20 29.8h2.8M20 31.6h3.6M25.5 29.8h2.8M25.5 31.6h2.1"
    stroke="#ECF6FF"
    stroke-width="0.9"
    stroke-linecap="round"
  />
</svg>
