<svg width="1344" height="384" viewBox="0 0 336 96" fill="none" xmlns="http://www.w3.org/2000/svg">
  <defs>
    <linearGradient id="bg" x1="16" y1="12" x2="84" y2="84" gradientUnits="userSpaceOnUse">
      <stop stop-color="#FF7A59" />
      <stop offset="1" stop-color="#FF3B6E" />
    </linearGradient>
    <linearGradient id="panel" x1="28" y1="24" x2="68" y2="72" gradientUnits="userSpaceOnUse">
      <stop stop-color="#1A1124" />
      <stop offset="1" stop-color="#0B0A12" />
    </linearGradient>
    <linearGradient id="book" x1="38" y1="56" x2="58" y2="74" gradientUnits="userSpaceOnUse">
      <stop stop-color="#53A8FF" />
      <stop offset="1" stop-color="#2B6BFF" />
    </linearGradient>
    <linearGradient id="wordmark" x1="114" y1="28" x2="284" y2="72" gradientUnits="userSpaceOnUse">
      <stop stop-color="#FF7A59" />
      <stop offset="0.5" stop-color="#FF3B6E" />
      <stop offset="1" stop-color="#6A78FF" />
    </linearGradient>
  </defs>

  <rect x="5" y="5" width="86" height="86" rx="26" fill="url(#bg)" />
  <rect x="5" y="5" width="86" height="86" rx="26" fill="none" stroke="#FFFFFF" stroke-opacity="0.24" stroke-width="2" />

  <rect x="22" y="19" width="52" height="58" rx="16" fill="url(#panel)" />
  <rect x="22" y="19" width="52" height="58" rx="16" fill="none" stroke="#FFFFFF" stroke-opacity="0.2" stroke-width="1.5" />

  <circle cx="48" cy="46" r="14.6" fill="#FFF7F2" />
  <circle cx="42" cy="44.2" r="2" fill="#1A1124" />
  <circle cx="54" cy="44.2" r="2" fill="#1A1124" />
  <path d="M43.4 50.4c1.8 2 7.6 2 9.4 0" stroke="#2A1A30" stroke-width="2.4" stroke-linecap="round" />

  <rect x="36" y="54.6" width="24" height="15.6" rx="4.8" fill="url(#book)" />
  <path d="M48 54.6v15.6" stroke="#DBEDFF" stroke-opacity="0.75" stroke-width="1.4" />
  <path
    d="M40 59.6h5.6M40 63.2h7.2M51 59.6h5.6M51 63.2h4.2"
    stroke="#ECF6FF"
    stroke-width="1.8"
    stroke-linecap="round"
  />

  <text
    x="108"
    y="52"
    fill="url(#wordmark)"
    font-size="34"
    font-weight="800"
    font-family="Figtree, -apple-system, BlinkMacSystemFont, Segoe UI, sans-serif"
    letter-spacing="-0.5"
  >
    Minikyu
  </text>
  <text
    x="109"
    y="73"
    fill="#64748B"
    font-size="12"
    font-weight="600"
    font-family="Figtree, -apple-system, BlinkMacSystemFont, Segoe UI, sans-serif"
    letter-spacing="0.8"
  >
    RSS READER
  </text>
</svg>
